<svg xmlns="http://www.w3.org/2000/svg" viewBox="0 0 1340 720">
      <defs>
        <marker id="arrow-head" markerWidth="12" markerHeight="12" refX="10" refY="6" orient="auto">
          <path d="M0,0 L12,6 L0,12 z" fill="#233a7c" />
        </marker>
      </defs>
      <style>
        .bg { fill: #f7f9ff; }
        .box { filter: drop-shadow(0 10px 24px rgba(18, 27, 83, 0.08)); }
        .label { font-family: Arial, Helvetica, sans-serif; font-size: 18px; fill: #122053; font-weight: 600; }
        .small-label { font-family: Arial, Helvetica, sans-serif; font-size: 16px; fill: #122053; font-weight: 600; }
        .edge-label { font-family: Arial, Helvetica, sans-serif; font-size: 14px; fill: #30498d; font-weight: 600; }
        .strong-label { font-weight: 700; }
        .actor circle, .actor line { stroke: #122053; stroke-width: 3; fill: none; }
        .arrow { stroke: #233a7c; stroke-width: 2.8; marker-end: url(#arrow-head); }
      </style>
      <rect class="bg" x="0" y="0" width="1340" height="720" rx="28" />
      
      
    <rect x="70" y="110" width="180" height="84" rx="22" ry="22" fill="#eef5ff" stroke="#2c44b6" stroke-width="2.5" class="box" />
    
    <text x="160" y="156" text-anchor="middle" class="label">
      <tspan x="160" dy="0">Demande admin\ncree</tspan>
    </text>
  
  
      
    <rect x="320" y="110" width="190" height="84" rx="22" ry="22" fill="#eef5ff" stroke="#2c44b6" stroke-width="2.5" class="box" />
    
    <text x="415" y="156" text-anchor="middle" class="label">
      <tspan x="415" dy="0">Super Admin consulte\nla demande</tspan>
    </text>
  
  
      
    <rect x="580" y="110" width="190" height="84" rx="22" ry="22" fill="#eef5ff" stroke="#2c44b6" stroke-width="2.5" class="box" />
    
    <text x="675" y="156" text-anchor="middle" class="label">
      <tspan x="675" dy="0">Verification des\ndonnees</tspan>
    </text>
  
  
      
    <rect x="840" y="110" width="210" height="84" rx="22" ry="22" fill="#eef5ff" stroke="#2c44b6" stroke-width="2.5" class="box" />
    
    <text x="945" y="156" text-anchor="middle" class="label">
      <tspan x="945" dy="0">Decision:\napprouver ou rejeter</tspan>
    </text>
  
  
      
    <rect x="1110" y="60" width="180" height="84" rx="22" ry="22" fill="#fff1f3" stroke="#d9485f" stroke-width="2.5" class="box" />
    
    <text x="1200" y="106" text-anchor="middle" class="label">
      <tspan x="1200" dy="0">Rejet + message\nd erreur</tspan>
    </text>
  
  
      
    <rect x="1110" y="190" width="180" height="84" rx="22" ry="22" fill="#eafbf0" stroke="#16a34a" stroke-width="2.5" class="box" />
    
    <text x="1200" y="236" text-anchor="middle" class="label">
      <tspan x="1200" dy="0">Creation user + admin\n+ entreprise</tspan>
    </text>
  
  

      
    <rect x="840" y="360" width="210" height="84" rx="22" ry="22" fill="#eef5ff" stroke="#2c44b6" stroke-width="2.5" class="box" />
    
    <text x="945" y="406" text-anchor="middle" class="label">
      <tspan x="945" dy="0">Generation des\nidentifiants</tspan>
    </text>
  
  
      
    <rect x="580" y="360" width="190" height="84" rx="22" ry="22" fill="#eef5ff" stroke="#2c44b6" stroke-width="2.5" class="box" />
    
    <text x="675" y="406" text-anchor="middle" class="label">
      <tspan x="675" dy="0">Notification email\nadmin approuve</tspan>
    </text>
  
  
      
    <rect x="320" y="360" width="190" height="84" rx="22" ry="22" fill="#eef5ff" stroke="#2c44b6" stroke-width="2.5" class="box" />
    
    <text x="415" y="406" text-anchor="middle" class="label">
      <tspan x="415" dy="0">Admin se connecte\navec email ou telephone</tspan>
    </text>
  
  
      
    <rect x="70" y="360" width="180" height="84" rx="22" ry="22" fill="#eafbf0" stroke="#16a34a" stroke-width="2.5" class="box" />
    
    <text x="160" y="406" text-anchor="middle" class="label">
      <tspan x="160" dy="0">Acces a l espace\nadministrateur</tspan>
    </text>
  
  

      
    <line x1="250" y1="152" x2="320" y2="152" class="arrow" />
    
  
      
    <line x1="510" y1="152" x2="580" y2="152" class="arrow" />
    
  
      
    <line x1="770" y1="152" x2="840" y2="152" class="arrow" />
    
  
      
    <line x1="1050" y1="130" x2="1110" y2="102" class="arrow" />
    <text x="1080" y="108" class="edge-label" text-anchor="middle">Rejet</text>
  
      
    <line x1="1050" y1="174" x2="1110" y2="232" class="arrow" />
    <text x="1080" y="195" class="edge-label" text-anchor="middle">Approbation</text>
  
      
    <line x1="1200" y1="274" x2="945" y2="360" class="arrow" />
    
  
      
    <line x1="840" y1="402" x2="770" y2="402" class="arrow" />
    
  
      
    <line x1="580" y1="402" x2="510" y2="402" class="arrow" />
    
  
      
    <line x1="320" y1="402" x2="250" y2="402" class="arrow" />
    
  
    
    </svg>