<svg xmlns="http://www.w3.org/2000/svg" viewBox="0 0 1380 860">
      <defs>
        <marker id="arrow-head" markerWidth="12" markerHeight="12" refX="10" refY="6" orient="auto">
          <path d="M0,0 L12,6 L0,12 z" fill="#233a7c" />
        </marker>
      </defs>
      <style>
        .bg { fill: #f7f9ff; }
        .box { filter: drop-shadow(0 10px 24px rgba(18, 27, 83, 0.08)); }
        .label { font-family: Arial, Helvetica, sans-serif; font-size: 18px; fill: #122053; font-weight: 600; }
        .small-label { font-family: Arial, Helvetica, sans-serif; font-size: 16px; fill: #122053; font-weight: 600; }
        .edge-label { font-family: Arial, Helvetica, sans-serif; font-size: 14px; fill: #30498d; font-weight: 600; }
        .strong-label { font-weight: 700; }
        .actor circle, .actor line { stroke: #122053; stroke-width: 3; fill: none; }
        .arrow { stroke: #233a7c; stroke-width: 2.8; marker-end: url(#arrow-head); }
      </style>
      <rect class="bg" x="0" y="0" width="1380" height="860" rx="28" />
      
      
    <rect x="80" y="90" width="190" height="82" rx="22" ry="22" fill="#eef5ff" stroke="#2c44b6" stroke-width="2.5" class="box" />
    
    <text x="175" y="135" text-anchor="middle" class="label">
      <tspan x="175" dy="0">Selection du\nfichier</tspan>
    </text>
  
  
      
    <rect x="330" y="90" width="210" height="82" rx="22" ry="22" fill="#eef5ff" stroke="#2c44b6" stroke-width="2.5" class="box" />
    
    <text x="435" y="135" text-anchor="middle" class="label">
      <tspan x="435" dy="0">Lecture du tableur\net extraction des en-tetes</tspan>
    </text>
  
  
      
    <rect x="600" y="90" width="210" height="82" rx="22" ry="22" fill="#eef5ff" stroke="#2c44b6" stroke-width="2.5" class="box" />
    
    <text x="705" y="135" text-anchor="middle" class="label">
      <tspan x="705" dy="0">Mapping manuel ou\nsemi-automatique</tspan>
    </text>
  
  
      
    <rect x="870" y="90" width="210" height="82" rx="22" ry="22" fill="#eef5ff" stroke="#2c44b6" stroke-width="2.5" class="box" />
    
    <text x="975" y="135" text-anchor="middle" class="label">
      <tspan x="975" dy="0">Preview editable\ndes lignes</tspan>
    </text>
  
  
      
    <rect x="1140" y="90" width="180" height="82" rx="22" ry="22" fill="#eef5ff" stroke="#2c44b6" stroke-width="2.5" class="box" />
    
    <text x="1230" y="135" text-anchor="middle" class="label">
      <tspan x="1230" dy="0">Analyse des\ncontraintes</tspan>
    </text>
  
  

      
    <rect x="1140" y="260" width="180" height="82" rx="22" ry="22" fill="#fff1f3" stroke="#d9485f" stroke-width="2.5" class="box" />
    
    <text x="1230" y="305" text-anchor="middle" class="label">
      <tspan x="1230" dy="0">Erreurs detectees</tspan>
    </text>
  
  
      
    <rect x="870" y="260" width="210" height="82" rx="22" ry="22" fill="#fff8e7" stroke="#d97706" stroke-width="2.5" class="box" />
    
    <text x="975" y="305" text-anchor="middle" class="label">
      <tspan x="975" dy="0">Correction dans\nl application</tspan>
    </text>
  
  
      
    <rect x="600" y="260" width="210" height="82" rx="22" ry="22" fill="#eef5ff" stroke="#2c44b6" stroke-width="2.5" class="box" />
    
    <text x="705" y="305" text-anchor="middle" class="label">
      <tspan x="705" dy="0">Revalidation</tspan>
    </text>
  
  

      
    <rect x="330" y="470" width="210" height="82" rx="22" ry="22" fill="#eafbf0" stroke="#16a34a" stroke-width="2.5" class="box" />
    
    <text x="435" y="515" text-anchor="middle" class="label">
      <tspan x="435" dy="0">Insertion des\nlignes valides</tspan>
    </text>
  
  
      
    <rect x="600" y="470" width="210" height="82" rx="22" ry="22" fill="#eef5ff" stroke="#2c44b6" stroke-width="2.5" class="box" />
    
    <text x="705" y="515" text-anchor="middle" class="label">
      <tspan x="705" dy="0">Rafraichissement\ndes clients</tspan>
    </text>
  
  
      
    <rect x="870" y="470" width="210" height="82" rx="22" ry="22" fill="#eef5ff" stroke="#2c44b6" stroke-width="2.5" class="box" />
    
    <text x="975" y="515" text-anchor="middle" class="label">
      <tspan x="975" dy="0">Creation import run\n(inserted + errors)</tspan>
    </text>
  
  
      
    <rect x="1140" y="470" width="180" height="82" rx="22" ry="22" fill="#eef5ff" stroke="#2c44b6" stroke-width="2.5" class="box" />
    
    <text x="1230" y="515" text-anchor="middle" class="label">
      <tspan x="1230" dy="0">Navigation vers\nsucces ou erreurs</tspan>
    </text>
  
  

      
    <line x1="270" y1="131" x2="330" y2="131" class="arrow" />
    
  
      
    <line x1="540" y1="131" x2="600" y2="131" class="arrow" />
    
  
      
    <line x1="810" y1="131" x2="870" y2="131" class="arrow" />
    
  
      
    <line x1="1080" y1="131" x2="1140" y2="131" class="arrow" />
    
  
      
    <line x1="1230" y1="172" x2="1230" y2="260" class="arrow" />
    <text x="1230" y="208" class="edge-label" text-anchor="middle">erreurs</text>
  
      
    <line x1="1140" y1="301" x2="1080" y2="301" class="arrow" />
    
  
      
    <line x1="870" y1="301" x2="810" y2="301" class="arrow" />
    
  
      
    <line x1="705" y1="342" x2="705" y2="470" class="arrow" />
    <text x="705" y="398" class="edge-label" text-anchor="middle">OK</text>
  
      
    <line x1="540" y1="511" x2="600" y2="511" class="arrow" />
    
  
      
    <line x1="810" y1="511" x2="870" y2="511" class="arrow" />
    
  
      
    <line x1="1080" y1="511" x2="1140" y2="511" class="arrow" />
    
  
    
    </svg>