<svg xmlns="http://www.w3.org/2000/svg" viewBox="0 0 1380 760">
      <defs>
        <marker id="arrow-head" markerWidth="12" markerHeight="12" refX="10" refY="6" orient="auto">
          <path d="M0,0 L12,6 L0,12 z" fill="#233a7c" />
        </marker>
      </defs>
      <style>
        .bg { fill: #f7f9ff; }
        .box { filter: drop-shadow(0 10px 24px rgba(18, 27, 83, 0.08)); }
        .label { font-family: Arial, Helvetica, sans-serif; font-size: 18px; fill: #122053; font-weight: 600; }
        .small-label { font-family: Arial, Helvetica, sans-serif; font-size: 16px; fill: #122053; font-weight: 600; }
        .edge-label { font-family: Arial, Helvetica, sans-serif; font-size: 14px; fill: #30498d; font-weight: 600; }
        .strong-label { font-weight: 700; }
        .actor circle, .actor line { stroke: #122053; stroke-width: 3; fill: none; }
        .arrow { stroke: #233a7c; stroke-width: 2.8; marker-end: url(#arrow-head); }
      </style>
      <rect class="bg" x="0" y="0" width="1380" height="760" rx="28" />
      
      
    <rect x="80" y="120" width="200" height="86" rx="22" ry="22" fill="#eef5ff" stroke="#2c44b6" stroke-width="2.5" class="box" />
    
    <text x="180" y="167" text-anchor="middle" class="label">
      <tspan x="180" dy="0">Admin ouvre la page\nabonnement</tspan>
    </text>
  
  
      
    <rect x="340" y="120" width="220" height="86" rx="22" ry="22" fill="#eef5ff" stroke="#2c44b6" stroke-width="2.5" class="box" />
    
    <text x="450" y="167" text-anchor="middle" class="label">
      <tspan x="450" dy="0">Choix methode:\nWave / OM / Cash</tspan>
    </text>
  
  
      
    <rect x="620" y="120" width="220" height="86" rx="22" ry="22" fill="#eef5ff" stroke="#2c44b6" stroke-width="2.5" class="box" />
    
    <text x="730" y="167" text-anchor="middle" class="label">
      <tspan x="730" dy="0">Validation montant,\nmois et regles</tspan>
    </text>
  
  
      
    <rect x="900" y="120" width="220" height="86" rx="22" ry="22" fill="#eef5ff" stroke="#2c44b6" stroke-width="2.5" class="box" />
    
    <text x="1010" y="167" text-anchor="middle" class="label">
      <tspan x="1010" dy="0">Creation paiement\npending ou paid</tspan>
    </text>
  
  

      
    <rect x="900" y="320" width="220" height="86" rx="22" ry="22" fill="#fff8e7" stroke="#d97706" stroke-width="2.5" class="box" />
    
    <text x="1010" y="367" text-anchor="middle" class="label">
      <tspan x="1010" dy="0">Si cash:\nvalidation Super Admin</tspan>
    </text>
  
  
      
    <rect x="620" y="320" width="220" height="86" rx="22" ry="22" fill="#eef5ff" stroke="#2c44b6" stroke-width="2.5" class="box" />
    
    <text x="730" y="367" text-anchor="middle" class="label">
      <tspan x="730" dy="0">Si Wave / OM:\nprovider ou simulation</tspan>
    </text>
  
  
      
    <rect x="340" y="320" width="220" height="86" rx="22" ry="22" fill="#eef5ff" stroke="#2c44b6" stroke-width="2.5" class="box" />
    
    <text x="450" y="367" text-anchor="middle" class="label">
      <tspan x="450" dy="0">Webhook / retour\npayment finalise</tspan>
    </text>
  
  
      
    <rect x="80" y="320" width="200" height="86" rx="22" ry="22" fill="#eafbf0" stroke="#16a34a" stroke-width="2.5" class="box" />
    
    <text x="180" y="367" text-anchor="middle" class="label">
      <tspan x="180" dy="0">Notification Brevo\nSuper Admin</tspan>
    </text>
  
  

      
    <rect x="340" y="540" width="220" height="86" rx="22" ry="22" fill="#eef5ff" stroke="#2c44b6" stroke-width="2.5" class="box" />
    
    <text x="450" y="587" text-anchor="middle" class="label">
      <tspan x="450" dy="0">Mise a jour statut\nabonnement admin</tspan>
    </text>
  
  
      
    <rect x="620" y="540" width="220" height="86" rx="22" ry="22" fill="#eef5ff" stroke="#2c44b6" stroke-width="2.5" class="box" />
    
    <text x="730" y="587" text-anchor="middle" class="label">
      <tspan x="730" dy="0">Audit + historique\nd annulation</tspan>
    </text>
  
  
      
    <rect x="900" y="540" width="220" height="86" rx="22" ry="22" fill="#eafbf0" stroke="#16a34a" stroke-width="2.5" class="box" />
    
    <text x="1010" y="587" text-anchor="middle" class="label">
      <tspan x="1010" dy="0">Acces admin\nmaintenu ou retabli</tspan>
    </text>
  
  

      
    <line x1="280" y1="163" x2="340" y2="163" class="arrow" />
    
  
      
    <line x1="560" y1="163" x2="620" y2="163" class="arrow" />
    
  
      
    <line x1="840" y1="163" x2="900" y2="163" class="arrow" />
    
  
      
    <line x1="1010" y1="206" x2="1010" y2="320" class="arrow" />
    <text x="1010" y="255" class="edge-label" text-anchor="middle">cash</text>
  
      
    <line x1="900" y1="206" x2="730" y2="320" class="arrow" />
    <text x="815" y="255" class="edge-label" text-anchor="middle">mobile money</text>
  
      
    <line x1="620" y1="363" x2="560" y2="363" class="arrow" />
    
  
      
    <line x1="340" y1="363" x2="280" y2="363" class="arrow" />
    
  
      
    <line x1="390" y1="406" x2="450" y2="540" class="arrow" />
    
  
      
    <line x1="560" y1="583" x2="620" y2="583" class="arrow" />
    
  
      
    <line x1="840" y1="583" x2="900" y2="583" class="arrow" />
    
  
    
    </svg>