<svg xmlns="http://www.w3.org/2000/svg" viewBox="0 0 1380 760">
      <defs>
        <marker id="arrow-head" markerWidth="12" markerHeight="12" refX="10" refY="6" orient="auto">
          <path d="M0,0 L12,6 L0,12 z" fill="#233a7c" />
        </marker>
      </defs>
      <style>
        .bg { fill: #f7f9ff; }
        .box { filter: drop-shadow(0 10px 24px rgba(18, 27, 83, 0.08)); }
        .label { font-family: Arial, Helvetica, sans-serif; font-size: 18px; fill: #122053; font-weight: 600; }
        .small-label { font-family: Arial, Helvetica, sans-serif; font-size: 16px; fill: #122053; font-weight: 600; }
        .edge-label { font-family: Arial, Helvetica, sans-serif; font-size: 14px; fill: #30498d; font-weight: 600; }
        .strong-label { font-weight: 700; }
        .actor circle, .actor line { stroke: #122053; stroke-width: 3; fill: none; }
        .arrow { stroke: #233a7c; stroke-width: 2.8; marker-end: url(#arrow-head); }
      </style>
      <rect class="bg" x="0" y="0" width="1380" height="760" rx="28" />
      
      
    <rect x="80" y="160" width="220" height="90" rx="22" ry="22" fill="#ffffff" stroke="#2c44b6" stroke-width="2.5" class="box" />
    
    <text x="190" y="209" text-anchor="middle" class="label">
      <tspan x="190" dy="0">Git / GitHub\nsource du projet</tspan>
    </text>
  
  
      
    <rect x="360" y="160" width="220" height="90" rx="22" ry="22" fill="#eef5ff" stroke="#2c44b6" stroke-width="2.5" class="box" />
    
    <text x="470" y="209" text-anchor="middle" class="label">
      <tspan x="470" dy="0">Build frontend\nVite + React</tspan>
    </text>
  
  
      
    <rect x="640" y="80" width="220" height="90" rx="22" ry="22" fill="#eef5ff" stroke="#2c44b6" stroke-width="2.5" class="box" />
    
    <text x="750" y="129" text-anchor="middle" class="label">
      <tspan x="750" dy="0">Vercel\nfrontend web</tspan>
    </text>
  
  
      
    <rect x="640" y="260" width="220" height="90" rx="22" ry="22" fill="#eef5ff" stroke="#2c44b6" stroke-width="2.5" class="box" />
    
    <text x="750" y="309" text-anchor="middle" class="label">
      <tspan x="750" dy="0">Electron build\nLinux / Win / macOS</tspan>
    </text>
  
  
      
    <rect x="940" y="160" width="220" height="90" rx="22" ry="22" fill="#eef5ff" stroke="#2c44b6" stroke-width="2.5" class="box" />
    
    <text x="1050" y="209" text-anchor="middle" class="label">
      <tspan x="1050" dy="0">Render\nNext backend API</tspan>
    </text>
  
  
      
    <rect x="1180" y="80" width="150" height="90" rx="22" ry="22" fill="#ffffff" stroke="#2c44b6" stroke-width="2.5" class="box" />
    
    <text x="1255" y="129" text-anchor="middle" class="label">
      <tspan x="1255" dy="0">PostgreSQL</tspan>
    </text>
  
  
      
    <rect x="1180" y="220" width="150" height="90" rx="22" ry="22" fill="#ffffff" stroke="#2c44b6" stroke-width="2.5" class="box" />
    
    <text x="1255" y="269" text-anchor="middle" class="label">
      <tspan x="1255" dy="0">Brevo</tspan>
    </text>
  
  
      
    <rect x="1180" y="360" width="150" height="90" rx="22" ry="22" fill="#ffffff" stroke="#2c44b6" stroke-width="2.5" class="box" />
    
    <text x="1255" y="409" text-anchor="middle" class="label">
      <tspan x="1255" dy="0">Cloudinary</tspan>
    </text>
  
  
      
    <rect x="940" y="420" width="220" height="90" rx="22" ry="22" fill="#ffffff" stroke="#2c44b6" stroke-width="2.5" class="box" />
    
    <text x="1050" y="469" text-anchor="middle" class="label">
      <tspan x="1050" dy="0">Swagger / Documentation\nAPI</tspan>
    </text>
  
  

      
    <line x1="300" y1="205" x2="360" y2="205" class="arrow" />
    
  
      
    <line x1="580" y1="185" x2="640" y2="125" class="arrow" />
    
  
      
    <line x1="580" y1="225" x2="640" y2="305" class="arrow" />
    
  
      
    <line x1="860" y1="205" x2="940" y2="205" class="arrow" />
    
  
      
    <line x1="1160" y1="170" x2="1180" y2="125" class="arrow" />
    
  
      
    <line x1="1160" y1="205" x2="1180" y2="265" class="arrow" />
    
  
      
    <line x1="1160" y1="240" x2="1180" y2="405" class="arrow" />
    
  
      
    <line x1="1040" y1="250" x2="1040" y2="420" class="arrow" />
    
  
    
    </svg>