<svg xmlns="http://www.w3.org/2000/svg" viewBox="0 0 1380 980">
      <defs>
        <marker id="arrow-head" markerWidth="12" markerHeight="12" refX="10" refY="6" orient="auto">
          <path d="M0,0 L12,6 L0,12 z" fill="#233a7c" />
        </marker>
      </defs>
      <style>
        .bg { fill: #f7f9ff; }
        .box { filter: drop-shadow(0 10px 24px rgba(18, 27, 83, 0.08)); }
        .label { font-family: Arial, Helvetica, sans-serif; font-size: 18px; fill: #122053; font-weight: 600; }
        .small-label { font-family: Arial, Helvetica, sans-serif; font-size: 16px; fill: #122053; font-weight: 600; }
        .edge-label { font-family: Arial, Helvetica, sans-serif; font-size: 14px; fill: #30498d; font-weight: 600; }
        .strong-label { font-weight: 700; }
        .actor circle, .actor line { stroke: #122053; stroke-width: 3; fill: none; }
        .arrow { stroke: #233a7c; stroke-width: 2.8; marker-end: url(#arrow-head); }
      </style>
      <rect class="bg" x="0" y="0" width="1380" height="980" rx="28" />
      
      
    <rect x="70" y="80" width="160" height="58" rx="18" ry="18" fill="#eef5ff" stroke="#2c44b6" stroke-width="2.5" />
    
    <text x="150" y="113" text-anchor="middle" class="small-label">
      <tspan x="150" dy="0">Admin</tspan>
    </text>
  
  <line x1="150" y1="138" x2="150" y2="920" stroke="#7d8fbe" stroke-width="2" stroke-dasharray="10 10" />
    <rect x="330" y="80" width="160" height="58" rx="18" ry="18" fill="#eef5ff" stroke="#2c44b6" stroke-width="2.5" />
    
    <text x="410" y="113" text-anchor="middle" class="small-label">
      <tspan x="410" dy="0">API admin_payments</tspan>
    </text>
  
  <line x1="410" y1="138" x2="410" y2="920" stroke="#7d8fbe" stroke-width="2" stroke-dasharray="10 10" />
    <rect x="590" y="80" width="160" height="58" rx="18" ry="18" fill="#eef5ff" stroke="#2c44b6" stroke-width="2.5" />
    
    <text x="670" y="113" text-anchor="middle" class="small-label">
      <tspan x="670" dy="0">Payment Service</tspan>
    </text>
  
  <line x1="670" y1="138" x2="670" y2="920" stroke="#7d8fbe" stroke-width="2" stroke-dasharray="10 10" />
    <rect x="850" y="80" width="160" height="58" rx="18" ry="18" fill="#eef5ff" stroke="#2c44b6" stroke-width="2.5" />
    
    <text x="930" y="113" text-anchor="middle" class="small-label">
      <tspan x="930" dy="0">Provider</tspan>
    </text>
  
  <line x1="930" y1="138" x2="930" y2="920" stroke="#7d8fbe" stroke-width="2" stroke-dasharray="10 10" />
    <rect x="1110" y="80" width="160" height="58" rx="18" ry="18" fill="#eef5ff" stroke="#2c44b6" stroke-width="2.5" />
    
    <text x="1190" y="113" text-anchor="middle" class="small-label">
      <tspan x="1190" dy="0">DB / Audit</tspan>
    </text>
  
  <line x1="1190" y1="138" x2="1190" y2="920" stroke="#7d8fbe" stroke-width="2" stroke-dasharray="10 10" />
      
    <line x1="150" y1="190" x2="410" y2="190" class="arrow"  />
    <text x="280" y="180" class="edge-label" text-anchor="middle">POST payment(amount, method, month)</text>
  
      
    <line x1="410" y1="250" x2="670" y2="250" class="arrow"  />
    <text x="540" y="240" class="edge-label" text-anchor="middle">validate role / amount / month</text>
  
      
    <line x1="670" y1="310" x2="1190" y2="310" class="arrow"  />
    <text x="930" y="300" class="edge-label" text-anchor="middle">check duplicate + requiredMonth</text>
  
      
    <rect x="500" y="370" width="740" height="150" rx="16" ry="16" fill="rgba(255, 241, 243, 0.65)" stroke="#d9485f" stroke-width="2.2" />
    <rect x="512" y="382" width="128" height="34" rx="12" ry="12" fill="#ffffff" stroke="#d9485f" stroke-width="2" />
    
    <text x="576" y="403" text-anchor="middle" class="small-label">
      <tspan x="576" dy="0">alt invalide</tspan>
    </text>
  
  
      
    <line x1="410" y1="470" x2="150" y2="470" class="arrow" stroke-dasharray="10 8" />
    <text x="280" y="460" class="edge-label" text-anchor="middle">409 doublon / mois invalide</text>
  
      
    <rect x="500" y="560" width="740" height="170" rx="16" ry="16" fill="rgba(237, 245, 255, 0.75)" stroke="#2c44b6" stroke-width="2.2" />
    <rect x="512" y="572" width="128" height="34" rx="12" ry="12" fill="#ffffff" stroke="#2c44b6" stroke-width="2" />
    
    <text x="576" y="593" text-anchor="middle" class="small-label">
      <tspan x="576" dy="0">else mobile money</tspan>
    </text>
  
  
      
    <line x1="670" y1="640" x2="930" y2="640" class="arrow"  />
    <text x="800" y="630" class="edge-label" text-anchor="middle">initiate payment</text>
  
      
    <line x1="930" y1="700" x2="670" y2="700" class="arrow" stroke-dasharray="10 8" />
    <text x="800" y="690" class="edge-label" text-anchor="middle">pending | paid + reference</text>
  
      
    <line x1="670" y1="760" x2="1190" y2="760" class="arrow"  />
    <text x="930" y="750" class="edge-label" text-anchor="middle">insert admin_payment</text>
  
      
    <line x1="410" y1="820" x2="150" y2="820" class="arrow" stroke-dasharray="10 8" />
    <text x="280" y="810" class="edge-label" text-anchor="middle">201 status pending|paid</text>
  
      
    <rect x="500" y="850" width="740" height="90" rx="16" ry="16" fill="rgba(234, 251, 240, 0.75)" stroke="#16a34a" stroke-width="2.2" />
    <rect x="512" y="862" width="128" height="34" rx="12" ry="12" fill="#ffffff" stroke="#16a34a" stroke-width="2" />
    
    <text x="576" y="883" text-anchor="middle" class="small-label">
      <tspan x="576" dy="0">webhook paid</tspan>
    </text>
  
  
      
    <line x1="930" y1="900" x2="410" y2="900" class="arrow"  />
    <text x="670" y="890" class="edge-label" text-anchor="middle">POST webhook/provider</text>
  
      
    <line x1="410" y1="900" x2="670" y2="900" class="arrow"  />
    <text x="540" y="890" class="edge-label" text-anchor="middle">verify signature + mark paid</text>
  
      
    <line x1="670" y1="900" x2="1190" y2="900" class="arrow"  />
    <text x="930" y="890" class="edge-label" text-anchor="middle">update payment + admin</text>
  
    
    </svg>